<svg width="83" height="83" viewBox="0 0 83 83" fill="none" xmlns="http://www.w3.org/2000/svg">
<path d="M61.4121 20.034L62.1926 18.5023L62.1925 18.5022L61.4121 20.034ZM65.9199 24.5418L67.4516 23.7614L67.4516 23.7614L65.9199 24.5418ZM67.0439 35.4129H68.763H67.0439ZM65.9199 51.0984L67.4516 51.879L67.4516 51.8789L65.9199 51.0984ZM61.4121 55.6053L62.1925 57.137L62.1926 57.137L61.4121 55.6053ZM18.1133 64.4031L16.8977 63.1876L16.8977 63.1876L18.1133 64.4031ZM15.4717 63.3094H13.7526V63.3096L15.4717 63.3094ZM15.4717 35.4129H13.7526H15.4717ZM16.5957 24.5418L15.064 23.7614L15.064 23.7614L16.5957 24.5418ZM21.1035 20.034L20.3231 18.5023L20.3231 18.5023L21.1035 20.034ZM31.9746 18.91V17.1909V18.91ZM24.7791 57.7373L25.9947 58.9529L24.7791 57.7373ZM50.541 18.91V20.6291C53.4576 20.6291 55.5416 20.6304 57.1753 20.7639C58.789 20.8957 59.8113 21.1478 60.6317 21.5658L61.4121 20.034L62.1925 18.5022C60.8066 17.7962 59.2815 17.4863 57.4553 17.3371C55.6491 17.1895 53.4008 17.1909 50.541 17.1909V18.91ZM61.4121 20.034L60.6317 21.5657C62.249 22.3898 63.5641 23.7049 64.3882 25.3223L65.9199 24.5418L67.4516 23.7614C66.2979 21.4971 64.4568 19.656 62.1926 18.5023L61.4121 20.034ZM65.9199 24.5418L64.3882 25.3223C64.8062 26.1427 65.0583 27.1649 65.1901 28.7785C65.3236 30.4122 65.3249 32.4963 65.3249 35.4129H67.0439H68.763C68.763 32.5531 68.7644 30.3048 68.6169 28.4986C68.4677 26.6724 68.1578 25.1473 67.4516 23.7614L65.9199 24.5418ZM67.0439 35.4129H65.3249V40.2264H67.0439H68.763V35.4129H67.0439ZM67.0439 40.2264H65.3249C65.3249 43.1431 65.3236 45.2274 65.1901 46.8613C65.0583 48.4752 64.8062 49.4976 64.3882 50.318L65.9199 51.0984L67.4516 51.8789C68.1578 50.4929 68.4677 48.9676 68.6169 47.1412C68.7644 45.3348 68.763 43.0863 68.763 40.2264H67.0439ZM65.9199 51.0984L64.3882 50.3179C63.5643 51.9349 62.2492 53.2494 60.6317 54.0736L61.4121 55.6053L62.1926 57.137C64.4564 55.9835 66.2977 54.1433 67.4516 51.879L65.9199 51.0984ZM61.4121 55.6053L60.6317 54.0736C59.8111 54.4917 58.7887 54.744 57.1752 54.876C55.5416 55.0096 53.4575 55.0112 50.541 55.0112V56.7303V58.4494C53.4011 58.4494 55.6493 58.4505 57.4556 58.3027C59.2819 58.1533 60.8068 57.8431 62.1925 57.137L61.4121 55.6053ZM50.541 56.7303V55.0112H27.2103V56.7303V58.4494H50.541V56.7303ZM24.7791 57.7373L23.5635 56.5217L16.8977 63.1876L18.1133 64.4031L19.3289 65.6187L25.9947 58.9529L24.7791 57.7373ZM18.1133 64.4031L16.8977 63.1876C16.9077 63.1776 16.944 63.1524 16.9959 63.1434C17.0384 63.136 17.0678 63.1433 17.0847 63.1503C17.1015 63.1572 17.1276 63.173 17.1525 63.2083C17.1829 63.2514 17.1908 63.295 17.1908 63.3092L15.4717 63.3094L13.7526 63.3096C13.7529 66.2198 17.2717 67.6759 19.3289 65.6187L18.1133 64.4031ZM15.4717 63.3094H17.1908V35.4129H15.4717H13.7526V63.3094H15.4717ZM15.4717 35.4129H17.1908C17.1908 32.4963 17.1921 30.4122 17.3255 28.7785C17.4573 27.1649 17.7094 26.1427 18.1274 25.3222L16.5957 24.5418L15.064 23.7614C14.3578 25.1473 14.0479 26.6724 13.8988 28.4986C13.7512 30.3048 13.7526 32.5531 13.7526 35.4129H15.4717ZM16.5957 24.5418L18.1274 25.3223C18.9515 23.7049 20.2666 22.3898 21.884 21.5657L21.1035 20.034L20.3231 18.5023C18.0588 19.656 16.2177 21.4971 15.064 23.7614L16.5957 24.5418ZM21.1035 20.034L21.8839 21.5657C22.7044 21.1477 23.7266 20.8956 25.3402 20.7638C26.974 20.6304 29.058 20.6291 31.9746 20.6291V18.91V17.1909C29.1148 17.1909 26.8665 17.1895 25.0603 17.337C23.2341 17.4862 21.709 17.7961 20.3231 18.5023L21.1035 20.034ZM31.9746 18.91V20.6291H50.541V18.91V17.1909H31.9746V18.91ZM27.2103 56.7303V55.0112C25.8425 55.0112 24.5307 55.5546 23.5635 56.5217L24.7791 57.7373L25.9947 58.9529C26.3171 58.6305 26.7543 58.4494 27.2103 58.4494V56.7303Z" fill="#222222"/>
<path d="M29.2244 32.6627L53.2916 32.6627M29.2244 42.9772H46.4152" stroke="#BE8CFF" stroke-width="3.43817" stroke-linecap="round" stroke-linejoin="round"/>
</svg>
