<svg width="83" height="83" viewBox="0 0 83 83" fill="none" xmlns="http://www.w3.org/2000/svg">
<circle cx="41.2582" cy="30.9436" r="5.15726" stroke="#222222" stroke-width="3.43817" stroke-linecap="round"/>
<path d="M53.9825 28.3649C54.6664 27.1804 55.7929 26.3161 57.1141 25.962C58.4352 25.608 59.8429 25.7934 61.0275 26.4773C62.212 27.1612 63.0764 28.2876 63.4304 29.6088C63.7844 30.93 63.5991 32.3377 62.9152 33.5222C62.2313 34.7068 61.1048 35.5711 59.7837 35.9251C58.4625 36.2791 57.0548 36.0938 55.8702 35.4099C54.6857 34.726 53.8213 33.5996 53.4673 32.2784C53.1133 30.9572 53.2986 29.5495 53.9825 28.3649L53.9825 28.3649Z" stroke="#222222" stroke-width="3.43817"/>
<path d="M19.6009 28.3649C20.2848 27.1804 21.4113 26.3161 22.7325 25.962C24.0537 25.608 25.4614 25.7934 26.6459 26.4773C27.8304 27.1612 28.6948 28.2876 29.0488 29.6088C29.4028 30.93 29.2175 32.3377 28.5336 33.5222C27.8497 34.7068 26.7232 35.5711 25.4021 35.9251C24.0809 36.2791 22.6732 36.0938 21.4886 35.4099C20.3041 34.726 19.4397 33.5996 19.0857 32.2784C18.7317 30.9572 18.9171 29.5495 19.6009 28.3649L19.6009 28.3649Z" stroke="#222222" stroke-width="3.43817"/>
<path d="M56.7302 42.9772L56.7303 41.2581H56.7302V42.9772ZM70.0144 53.3336L71.6861 52.9329L71.6861 52.9329L70.0144 53.3336ZM67.0447 56.7301V58.4492L67.0449 58.4492L67.0447 56.7301ZM52.8806 53.3248L54.5629 52.9712L54.5629 52.9712L52.8806 53.3248ZM48.4783 45.3375L47.4787 43.9389L45.6494 45.2464L47.3907 46.6689L48.4783 45.3375ZM56.7302 42.9772L56.7302 44.6963C60.9453 44.6963 63.5703 46.1016 65.264 47.8311C67.0043 49.6081 67.8953 51.8677 68.3427 53.7343L70.0144 53.3336L71.6861 52.9329C71.1574 50.7271 70.0543 47.8086 67.7205 45.4255C65.3401 42.9949 61.8111 41.2582 56.7303 41.2581L56.7302 42.9772ZM70.0144 53.3336L68.3427 53.7343C68.4237 54.0725 68.3359 54.3466 68.1338 54.5697C67.9132 54.813 67.5299 55.011 67.0445 55.011L67.0447 56.7301L67.0449 58.4492C69.7943 58.4489 72.4453 56.1003 71.6861 52.9329L70.0144 53.3336ZM67.0447 56.7301V55.011H49.8533V56.7301V58.4492H67.0447V56.7301ZM49.8533 56.7301V58.4492C52.6171 58.4492 55.2225 56.109 54.5629 52.9712L52.8806 53.3248L51.1983 53.6784C51.2727 54.0324 51.1751 54.3265 50.9591 54.5617C50.7275 54.814 50.338 55.011 49.8533 55.011V56.7301ZM52.8806 53.3248L54.5629 52.9712C54.0085 50.3332 52.7051 46.5706 49.5658 44.0062L48.4783 45.3375L47.3907 46.6689C49.6356 48.5027 50.708 51.346 51.1983 53.6784L52.8806 53.3248ZM48.4783 45.3375L49.4779 46.7361C51.122 45.561 53.43 44.6963 56.7302 44.6963V42.9772V41.2581C52.789 41.2581 49.7649 42.3049 47.4787 43.9389L48.4783 45.3375Z" fill="#222222"/>
<path d="M25.7859 42.9772V41.2581H25.7859L25.7859 42.9772ZM34.0369 45.3375L35.1245 46.6688L36.8658 45.2462L35.0364 43.9389L34.0369 45.3375ZM29.6355 53.3248L27.9532 52.9712L27.9532 52.9712L29.6355 53.3248ZM15.4714 56.7301L15.4713 58.4492H15.4714V56.7301ZM12.5017 53.3336L10.83 52.9329L10.83 52.9329L12.5017 53.3336ZM25.7859 42.9772V44.6963C29.0855 44.6963 31.3931 45.5612 33.0374 46.7362L34.0369 45.3375L35.0364 43.9389C32.7504 42.3053 29.7269 41.2581 25.7859 41.2581V42.9772ZM34.0369 45.3375L32.9492 44.0062C29.8103 46.5707 28.5076 50.3336 27.9532 52.9712L29.6355 53.3248L31.3178 53.6784C31.8081 51.3459 32.88 48.5025 35.1245 46.6688L34.0369 45.3375ZM29.6355 53.3248L27.9532 52.9712C27.2937 56.109 29.8991 58.4492 32.6628 58.4492V56.7301V55.011C32.1781 55.011 31.7886 54.814 31.557 54.5617C31.341 54.3265 31.2434 54.0324 31.3178 53.6784L29.6355 53.3248ZM32.6628 56.7301V55.011H15.4714V56.7301V58.4492H32.6628V56.7301ZM15.4714 56.7301L15.4716 55.011C14.9861 55.011 14.6029 54.813 14.3823 54.5697C14.1802 54.3467 14.0924 54.0725 14.1734 53.7343L12.5017 53.3336L10.83 52.9329C10.0708 56.1003 12.7217 58.4489 15.4713 58.4492L15.4714 56.7301ZM12.5017 53.3336L14.1734 53.7343C14.6209 51.8677 15.5118 49.6081 17.2521 47.8311C18.9458 46.1016 21.5708 44.6963 25.7859 44.6963L25.7859 42.9772L25.7859 41.2581C20.7051 41.2582 17.176 42.9949 14.7957 45.4255C12.4618 47.8086 11.3587 50.7271 10.83 52.9329L12.5017 53.3336Z" fill="#222222"/>
<path d="M41.258 42.9772C49.3865 42.9772 52.0243 49.2522 52.8803 53.3249C53.2709 55.1832 51.7523 56.7299 49.8534 56.7299H32.6625C30.7637 56.7299 29.245 55.1832 29.6356 53.3249C30.4916 49.2522 33.1295 42.9772 41.258 42.9772Z" stroke="#222222" stroke-width="3.43817" stroke-linecap="round"/>
<path d="M63.6062 73.9207H68.7635C71.6117 73.9207 73.9207 71.6118 73.9207 68.7635V63.6062" stroke="#BE8CFF" stroke-width="3.43817" stroke-linecap="round"/>
<path d="M63.6062 8.59543H68.7635C71.6117 8.59543 73.9207 10.9044 73.9207 13.7527V18.91" stroke="#BE8CFF" stroke-width="3.43817" stroke-linecap="round"/>
<path d="M18.9099 73.9207H13.7527C10.9044 73.9207 8.59539 71.6118 8.59539 68.7635V63.6062" stroke="#BE8CFF" stroke-width="3.43817" stroke-linecap="round"/>
<path d="M18.9099 8.59543H13.7527C10.9044 8.59543 8.59539 10.9044 8.59539 13.7527V18.91" stroke="#BE8CFF" stroke-width="3.43817" stroke-linecap="round"/>
</svg>
