<svg width="83" height="83" viewBox="0 0 83 83" fill="none" xmlns="http://www.w3.org/2000/svg">
<path d="M61.4121 20.0342L62.1926 18.5025L62.1925 18.5024L61.4121 20.0342ZM65.9199 24.542L67.4516 23.7615L67.4516 23.7615L65.9199 24.542ZM67.0439 35.4131H68.763H67.0439ZM65.9199 51.0986L67.4516 51.8791L67.4516 51.8791L65.9199 51.0986ZM61.4121 55.6055L62.1925 57.1372L62.1926 57.1372L61.4121 55.6055ZM18.1133 64.4033L16.8977 63.1877L16.8977 63.1877L18.1133 64.4033ZM15.4717 63.3096H13.7526V63.3098L15.4717 63.3096ZM15.4717 35.4131H13.7526H15.4717ZM16.5957 24.542L15.064 23.7615L15.064 23.7616L16.5957 24.542ZM21.1035 20.0342L20.3231 18.5025L20.3231 18.5025L21.1035 20.0342ZM31.9746 18.9102V17.1911V18.9102ZM24.7791 57.7375L25.9947 58.9531L24.7791 57.7375ZM50.541 18.9102V20.6292C53.4576 20.6292 55.5416 20.6306 57.1753 20.764C58.789 20.8959 59.8113 21.148 60.6317 21.5659L61.4121 20.0342L62.1925 18.5024C60.8066 17.7964 59.2815 17.4865 57.4553 17.3373C55.6491 17.1897 53.4008 17.1911 50.541 17.1911V18.9102ZM61.4121 20.0342L60.6317 21.5659C62.249 22.39 63.5641 23.7051 64.3882 25.3225L65.9199 24.542L67.4516 23.7615C66.2979 21.4973 64.4568 19.6562 62.1926 18.5025L61.4121 20.0342ZM65.9199 24.542L64.3882 25.3224C64.8062 26.1429 65.0583 27.1651 65.1901 28.7787C65.3236 30.4124 65.3249 32.4965 65.3249 35.4131H67.0439H68.763C68.763 32.5532 68.7644 30.3049 68.6169 28.4988C68.4677 26.6726 68.1578 25.1475 67.4516 23.7615L65.9199 24.542ZM67.0439 35.4131H65.3249V40.2266H67.0439H68.763V35.4131H67.0439ZM67.0439 40.2266H65.3249C65.3249 43.1433 65.3236 45.2276 65.1901 46.8615C65.0583 48.4754 64.8062 49.4978 64.3882 50.3182L65.9199 51.0986L67.4516 51.8791C68.1578 50.4931 68.4677 48.9678 68.6169 47.1414C68.7644 45.335 68.763 43.0865 68.763 40.2266H67.0439ZM65.9199 51.0986L64.3882 50.3181C63.5643 51.935 62.2492 53.2496 60.6317 54.0737L61.4121 55.6055L62.1926 57.1372C64.4564 55.9837 66.2977 54.1435 67.4516 51.8791L65.9199 51.0986ZM61.4121 55.6055L60.6317 54.0737C59.8111 54.4918 58.7887 54.7441 57.1752 54.8762C55.5416 55.0098 53.4575 55.0114 50.541 55.0114V56.7305V58.4496C53.4011 58.4496 55.6493 58.4507 57.4556 58.3029C59.2819 58.1535 60.8068 57.8432 62.1925 57.1372L61.4121 55.6055ZM50.541 56.7305V55.0114H27.2103V56.7305V58.4496H50.541V56.7305ZM24.7791 57.7375L23.5635 56.5219L16.8977 63.1877L18.1133 64.4033L19.3289 65.6189L25.9947 58.9531L24.7791 57.7375ZM18.1133 64.4033L16.8977 63.1877C16.9077 63.1777 16.944 63.1525 16.9959 63.1436C17.0384 63.1362 17.0678 63.1435 17.0847 63.1504C17.1015 63.1574 17.1276 63.1731 17.1525 63.2084C17.1829 63.2515 17.1908 63.2952 17.1908 63.3094L15.4717 63.3096L13.7526 63.3098C13.7529 66.22 17.2717 67.676 19.3289 65.6189L18.1133 64.4033ZM15.4717 63.3096H17.1908V35.4131H15.4717H13.7526V63.3096H15.4717ZM15.4717 35.4131H17.1908C17.1908 32.4965 17.1921 30.4124 17.3255 28.7787C17.4573 27.1651 17.7094 26.1428 18.1274 25.3224L16.5957 24.542L15.064 23.7616C14.3578 25.1475 14.0479 26.6726 13.8988 28.4988C13.7512 30.305 13.7526 32.5533 13.7526 35.4131H15.4717ZM16.5957 24.542L18.1274 25.3224C18.9515 23.7051 20.2666 22.39 21.884 21.5659L21.1035 20.0342L20.3231 18.5025C18.0588 19.6562 16.2177 21.4973 15.064 23.7615L16.5957 24.542ZM21.1035 20.0342L21.8839 21.5659C22.7044 21.1479 23.7266 20.8958 25.3402 20.764C26.974 20.6305 29.058 20.6292 31.9746 20.6292V18.9102V17.1911C29.1148 17.1911 26.8665 17.1897 25.0603 17.3372C23.2341 17.4864 21.709 17.7963 20.3231 18.5025L21.1035 20.0342ZM31.9746 18.9102V20.6292H50.541V18.9102V17.1911H31.9746V18.9102ZM27.2103 56.7305V55.0114C25.8425 55.0114 24.5307 55.5547 23.5635 56.5219L24.7791 57.7375L25.9947 58.9531C26.3171 58.6307 26.7543 58.4496 27.2103 58.4496V56.7305Z" fill="#222222"/>
<path d="M29.2246 32.6626L53.2918 32.6626M29.2246 42.9771H46.4155" stroke="#BE8CFF" stroke-width="3.43817" stroke-linecap="round" stroke-linejoin="round"/>
</svg>
