<svg width="83" height="83" viewBox="0 0 83 83" fill="none" xmlns="http://www.w3.org/2000/svg">
<circle cx="41.2582" cy="30.9437" r="5.15726" stroke="#222222" stroke-width="3.43817" stroke-linecap="round"/>
<path d="M53.9828 28.3651C54.6667 27.1806 55.7931 26.3162 57.1143 25.9622C58.4355 25.6082 59.8432 25.7935 61.0277 26.4774C62.2123 27.1613 63.0766 28.2877 63.4306 29.6089C63.7846 30.9301 63.5993 32.3378 62.9154 33.5224C62.2315 34.7069 61.1051 35.5713 59.7839 35.9253C58.4627 36.2793 57.055 36.0939 55.8705 35.4101C54.6859 34.7262 53.8216 33.5997 53.4676 32.2785C53.1136 30.9573 53.2989 29.5496 53.9828 28.3651L53.9828 28.3651Z" stroke="#222222" stroke-width="3.43817"/>
<path d="M19.6009 28.3651C20.2848 27.1806 21.4113 26.3162 22.7325 25.9622C24.0537 25.6082 25.4614 25.7935 26.6459 26.4774C27.8304 27.1613 28.6948 28.2877 29.0488 29.6089C29.4028 30.9301 29.2175 32.3378 28.5336 33.5224C27.8497 34.7069 26.7232 35.5713 25.4021 35.9253C24.0809 36.2793 22.6732 36.0939 21.4886 35.4101C20.3041 34.7262 19.4397 33.5997 19.0857 32.2785C18.7317 30.9573 18.9171 29.5496 19.6009 28.3651L19.6009 28.3651Z" stroke="#222222" stroke-width="3.43817"/>
<path d="M56.73 42.9771L56.73 41.258H56.73V42.9771ZM70.0142 53.3335L71.6859 52.9328L71.6859 52.9328L70.0142 53.3335ZM67.0444 56.73V58.4491L67.0446 58.4491L67.0444 56.73ZM52.8804 53.3247L54.5627 52.9711L54.5627 52.9711L52.8804 53.3247ZM48.478 45.3374L47.4784 43.9388L45.6491 45.2463L47.3905 46.6687L48.478 45.3374ZM56.73 42.9771L56.7299 44.6961C60.9451 44.6962 63.5701 46.1015 65.2638 47.831C67.0041 49.608 67.895 51.8676 68.3424 53.7342L70.0142 53.3335L71.6859 52.9328C71.1572 50.727 70.054 47.8084 67.7202 45.4254C65.3399 42.9948 61.8108 41.2581 56.73 41.258L56.73 42.9771ZM70.0142 53.3335L68.3424 53.7342C68.4235 54.0723 68.3357 54.3465 68.1335 54.5696C67.913 54.8129 67.5297 55.0108 67.0442 55.0109L67.0444 56.73L67.0446 58.4491C69.7941 58.4488 72.445 56.1001 71.6859 52.9328L70.0142 53.3335ZM67.0444 56.73V55.0109H49.853V56.73V58.4491H67.0444V56.73ZM49.853 56.73V58.4491C52.6168 58.4491 55.2222 56.1089 54.5627 52.9711L52.8804 53.3247L51.198 53.6783C51.2724 54.0323 51.1748 54.3264 50.9589 54.5616C50.7273 54.8139 50.3377 55.0109 49.853 55.0109V56.73ZM52.8804 53.3247L54.5627 52.9711C54.0082 50.333 52.7048 46.5704 49.5656 44.0061L48.478 45.3374L47.3905 46.6687C49.6354 48.5026 50.7078 51.3459 51.198 53.6783L52.8804 53.3247ZM48.478 45.3374L49.4776 46.736C51.1218 45.5609 53.4298 44.6961 56.73 44.6961V42.9771V41.258C52.7887 41.258 49.7647 42.3048 47.4784 43.9388L48.478 45.3374Z" fill="#222222"/>
<path d="M25.7861 42.9771V41.258H25.7861L25.7861 42.9771ZM34.0371 45.3374L35.1248 46.6687L36.866 45.2461L35.0366 43.9387L34.0371 45.3374ZM29.6357 53.3247L27.9534 52.9711L27.9534 52.9711L29.6357 53.3247ZM15.4717 56.73L15.4715 58.4491H15.4717V56.73ZM12.502 53.3335L10.8302 52.9328L10.8302 52.9328L12.502 53.3335ZM25.7861 42.9771V44.6961C29.0857 44.6961 31.3933 45.561 33.0376 46.7361L34.0371 45.3374L35.0366 43.9387C32.7506 42.3051 29.7272 41.258 25.7861 41.258V42.9771ZM34.0371 45.3374L32.9495 44.0061C29.8105 46.5706 28.5078 50.3335 27.9534 52.9711L29.6357 53.3247L31.3181 53.6783C31.8083 51.3458 32.8803 48.5024 35.1248 46.6687L34.0371 45.3374ZM29.6357 53.3247L27.9534 52.9711C27.2939 56.1089 29.8993 58.4491 32.6631 58.4491V56.73V55.0109C32.1784 55.0109 31.7888 54.8139 31.5572 54.5616C31.3413 54.3264 31.2437 54.0323 31.3181 53.6783L29.6357 53.3247ZM32.6631 56.73V55.0109H15.4717V56.73V58.4491H32.6631V56.73ZM15.4717 56.73L15.4718 55.0109C14.9864 55.0108 14.6031 54.8129 14.3826 54.5696C14.1804 54.3466 14.0926 54.0724 14.1737 53.7342L12.502 53.3335L10.8302 52.9328C10.071 56.1001 12.722 58.4488 15.4715 58.4491L15.4717 56.73ZM12.502 53.3335L14.1737 53.7342C14.6211 51.8676 15.5121 49.608 17.2523 47.831C18.9461 46.1015 21.571 44.6962 25.7862 44.6961L25.7861 42.9771L25.7861 41.258C20.7053 41.2581 17.1763 42.9948 14.7959 45.4254C12.4621 47.8084 11.3589 50.727 10.8302 52.9328L12.502 53.3335Z" fill="#222222"/>
<path d="M41.2582 42.9771C49.3867 42.9771 52.0246 49.2521 52.8806 53.3248C53.2712 55.1831 51.7525 56.7297 49.8537 56.7297H32.6628C30.7639 56.7297 29.2453 55.1831 29.6359 53.3248C30.4919 49.2521 33.1297 42.9771 41.2582 42.9771Z" stroke="#222222" stroke-width="3.43817" stroke-linecap="round"/>
<path d="M63.6064 73.9209H68.7637C71.612 73.9209 73.921 71.6119 73.921 68.7636V63.6064" stroke="#BE8CFF" stroke-width="3.43817" stroke-linecap="round"/>
<path d="M63.6064 8.59521H68.7637C71.612 8.59521 73.921 10.9042 73.921 13.7525V18.9097" stroke="#BE8CFF" stroke-width="3.43817" stroke-linecap="round"/>
<path d="M18.9102 73.9209H13.7529C10.9046 73.9209 8.59563 71.6119 8.59563 68.7636V63.6064" stroke="#BE8CFF" stroke-width="3.43817" stroke-linecap="round"/>
<path d="M18.9102 8.59521H13.7529C10.9046 8.59521 8.59563 10.9042 8.59563 13.7525V18.9097" stroke="#BE8CFF" stroke-width="3.43817" stroke-linecap="round"/>
</svg>
